<svg xmlns="http://www.w3.org/2000/svg" viewBox="0 0 1194.1 1194.1"><path fill="#2d483a" d="M831.6 226c-1.3.9-1.3 1.4 0 3.8.9 1.6 2.2 2.8 3 2.8q4 .1 4 4.3c0 1.5.6 3.8 1.3 5.2s1 3.4.6 4.5q-1 2.7-.8.2c-.1-3-2.1-.8-2.1 2.3 0 1.6.5 3.2 1 3.5 2.2 1.3.6 10.7-2 12.5-1.7 1-8.1 14-7 14q1 .1-1 3.4l-2 3.3 2 1.8c2.8 2.5.9 4.3-2.1 2q-4.6-3.1-3.6.5.5 2-1 2c-1.6 0-1.7 1.7 0 2.3q1.5.6 0 .6c-.7 0-1.3 1-1.3 2q0 2-2.2 2.2H816l2.3 1q4.4 2.3-.5 2.7c-1.5 0-3.1.6-3.6 1-1.3 1.4-.4 4.7 1.3 4.7 2 0 3.2 1.8 1.7 2.7-.6.4-1.7-.2-2.5-1.3-1.4-2-4.2-2.6-4.2-1q.2 1 1.7 1 2.1-.1-.5 1.7c-3.1 2.2-7.7 11.4-6.2 12.4 1.4.9-.5 2.4-3 2.5-2 0-2.6 3.5-.6 3.5 2.8 0 1.7 2.9-1.1 3.2-2.4.3-2.8.7-2.6 3q0 2.6-.7 2.3c-1.4-1-6 3.6-6 5.9 0 6.4-2.4 10.7-5.1 9q-.8-.3-.2 1 .4 1.6-.7 2.6c-1 .6-1 1.2 0 3q1.9 3.3-.4 1-3.2-2.6-3.1 3.7c0 2.7-.5 3.7-1.8 3.9-2.3.3-4.8 2.4-4.6 3.8.7 3.8-4.6 15.2-7.3 15.9-2.2.6-2.4 4.3-.3 5 2.3 1 1.8 3-.6 2.4-1.8-.5-2-.2-1.5 1.9.6 2 .3 2.4-2 2.4-3 0-5.4 4.3-5.4 9.5q0 3.6-1.5 3.5c-1.3 0-1.3.4.2 2.7q1.4 2.6.3 1.5a7 7 0 0 0-3.3-1.2c-1.6 0-2 .6-1.5 3.5q.6 5.3-4.4 4.6-1.6 0-1.8.8.1 1 1.5 1c1.4 0 1.5.5 1.5 1s-1 1-2 1c-2 0-3.6 3.3-2.5 5q.4 1-1 1-1.3.2-1.5 1.5c0 .7-1 2-2.1 2.8-2.1 1.3-2.1 1.5-.5 4.5 2 4 2 4.3-.6 4.3-3.3 0-4.5 1-5.2 4.7q-.7 3.3-2.2 2.6c-1.6-.6-1.8 1-.4 3.7.9 1.6.6 2-1.5 2.6q-2.5.7-4.2 4.3c-1 2-2.7 4.7-4 6a13 13 0 0 0-2.8 5.3c-.4 1.5-1.1 3-1.6 3.3-.5.4-1 1.9-1 3.5s-.3 3.2-1 3.5-.6-.1-.3-1q.3-1.4-.5-1.5c-1.2 0-4.3 4.4-4 5.6.2.5-.2 1.9-1 3.2-.6 1.2-1 2.7-.6 3.2q.4 1-.7 1-1.4 0 .5 1.4 3.4 2.6-.2 2.6c-3 0-5.3 2.8-4.2 4.8 1 1.9-.4 3.7-3 3.7-.7 0-1.6 1-1.7 2.5-.2 1.3-1.7 4-3.4 5.9-2.3 2.6-3 4-2.6 6.6.3 2.9 0 3.4-2.8 4.6-3.7 1.4-8.4 10.3-8.4 15.8q0 3-1.4 3c-2.1 0-5.8 5-8.6 11.4a19 19 0 0 1-3.2 5.7q-.8.1-.8 1.6c0 1.5.6 1.4 1.3 1q1.5-.5.9 2-.4 2.5-2.7 2.4c-2.5 0-4.5 2.5-8 9.5-1 2.2-2.7 4.9-3.7 6-1.5 1.8-1.8 3.4-1.4 7.7l.4 5.4-3-.4c-2.6-.4-3-.2-2.5 1.2q.6 1.5-.2 1c-1.3-.6-5.5 5.2-7 9.5-.6 1.9-2.2 4.8-3.4 6.5-3 3.9-2.3 7.9 1.3 8.4 2 .3 2.2.2 1-1.2s-1-1.6.4-1.6q1.5.1 1.6 1.6c0 1.5.5 1.2 1.3.8q1.2-.8.2.4c-.5.5-2.7 1.7-4.8 2.6l-3.7 1.5.6-2.4c.9-3.7-1.1-3.1-4.1 1.2-2.6 3.9-3.6 11-1.3 9.7q1.1-.7.6 1.4c-.4 1.2-.2 2.4.2 2.7s.6 1.4.3 2.5c-.4 1.6 0 2.3 2.5 3.2 2.6 1 3 1.6 2.6 3.5q-.6 2.2.6 2.3c.6 0 1.4-1 1.7-2s.9-2 1.4-2c1.5 0 2 2 .9 4q-1.1 2-.1 3.8c.9 1.6 1 1.6 1.6 0q.6-1.6 1.6-1.2c1 .4.5 1.3-.1 2.4-1.7 3-1.2 4.8 3 11a38 38 0 0 1 4 7q.1.8 1.8 1.2c1 .3 2.3 2.2 3 4.7 1.9 6.3 3.9 4 3.6-4.1l-.2-6.3.7 6c.5 3.3.6 7.2.3 8.6-.4 2.8 3.2 10.2 7 14.6 1 1.2 1.7 2.6 1.3 3.2q-.5 1 2 1t3.7-2.4c1.4-3.2 2.8-3.2 2.8 0 0 2.6-3.2 4.7-5.7 3.8-2-.7-1.5.7 1.2 5.2 1.4 2.2 2.5 3.3 2.5 2.5 0-2 2.6 3.6 3.4 7.2.5 2 1.2 2.8 3 2.8q2.4 0 2.7.7l.3 3.9c.3 3 11 20.9 14 23.4q1.5 1.5 2-1c.4-1.1.5-2.4.2-3-.3-.3.4-1.6 1.5-2.6 1.5-1.4 1.9-2.6 1.5-5-.3-1.5-.1-3.6.4-4.4q1.2-1.7.4 1.5-.6 3.3.5 1.5 1.2-2 1 .4-.2 2.2 1.6.6c.9-.7 1.5-2 1.4-3-.3-2.4 2-7.2 4.2-8.8 1-.7 1.9-2.1 1.7-3a7 7 0 0 1 1-3.8c.6-1.2.9-2.4.6-2.7s.6-1.3 2-2.3 2.5-2.3 2.2-3.1c-1-2.4.5-6.3 2.3-6.3q4.1.1 4-7c.2-4 .3-4.3 1.5-2.8 1 1.5 1.4 1.4 2.9-1.2 1.9-3.1 2.2-5.4.7-4.5q-.9.4-1-1 .1-1.2 1.4-1 1.8.3 3.5-1.6c2-2.2 2.5-3.7 2.2-7-.1-1 .7-2 1.8-2.2q2-.6 3-4.6c.7-2.2 2-4.5 3-5.1s1.8-1.6 1.5-2.5q-.5-1.3.5-1.5c1.7 0 4-5.6 4-9.5 0-2.8.5-3.5 2-3.5s2-.7 2-3.7.4-3.4 1.3-2.5q2.9 2.6 2-.7-.2-1.8 1.5-3.2c3.2-2.4 4.4-6.3 2.6-9q-2.4-2.8.5-1a9 9 0 0 0 3 1c1.6 0 1.5-2.6 0-3.2q-1.1-.6 1-1.3c1.2-.3 3-2 3.8-3.6 1.7-3.3 1.2-4.7-1-3q-1.5 1.7-1.3-1.3c0-3 .6-3.1 3.3-1q4.5 3.3 1.7-1.2-1.5-2.4-.5-2 1.1.7 1.2-.6c0-.7 1.4-2.6 3-4.2s3-3.7 3-4.7.5-1.8 1-1.8 2-2.1 3.2-4.8c1-2.6 2.9-6 3.9-7.4a9 9 0 0 0 1.9-3.7c0-.6 1.5-3.3 3.3-6 3-4.7 6.7-10.6 7.6-12.5q.2-.7-1.3-.3-1.6.5-1.6-.8c0-2 1.7-2.8 2.3-1.3q.3 1.5 2 0c2.3-2 8.8-15.5 7.8-16.1-.5-.4.2-2 1.5-3.4 1.3-1.6 2.4-2.4 2.4-2 0 1 4-3.7 4-5q-.1-.7-1.6-.3c-1.6.6-1.6.6 0-5.2.8-2.3 2-3 3-1.3q.5.9-.4 1.6c-.5.3-1 1.3-1 2 0 1.3.4 1.3 2.5-.2q2.5-1.8 2.5-5.2c0-2 .7-4.1 1.6-5 3-3.1 8.4-12.6 9-16q.6-3.3 1.4-2t1.9-2.6c.5-2.1 2-5 3.3-6.2a8 8 0 0 0 2-5.8c0-2 .4-3.5.9-3.5s.9.5.9 1q0 1.3 1.5 0c.9-.7 1.3-2.1 1-3-.8-2.6.5-5 2.8-5q1.7 0 1.4-.6c-.4-.4.5-2 1.8-3.6s2.5-3.6 2.5-4.3q.2-1.4 1.7-2.4c1.4-.7 1.5-1.2.5-2.4-1.1-1.2-.8-2 1.5-3.7 1.5-1.2 2.7-2.4 2.5-2.6q-.1-.6 1.3-2.1a5 5 0 0 0 1.4-3.7c-.2-3.7 0-4.6 1.8-4.6 1.5 0 1.5-.1 0-1.8-1.6-1.8-1.5-1.8 1.3-1.4s3 .2 3-2.6q0-3.1 1.9-3.7c1.7-.5 8.5-11.7 7.7-12.6-.2-.2-.6-2-1-3.7-.5-3-.4-3.2 1.3-2.2 1.6.8 2.4.5 4-1.7l2.2-2.7-2-.8c-3.1-1.1-2.5-2.8.9-2.8s3.8-1.4 1.3-4.2c-1.5-1.7-1.5-1.8 1.4-1.2 2.6.5 3.2.2 4.5-2.2.8-1.6 2-4 2.8-5.1 1.3-2 1.2-2.4-.5-3.7-2.7-2-3.6-2-4.2.3-.8 3.2-4.3 1.4-4.3-2.3q.1-2.7.8-2 1.7 2.6 6.5 1.3 2.6-.7 2.7.3c0 1.8 2.5.2 2.6-1.8l.3-3.2q.1-1.1 1-.7c2.3 1.4 8.6-8 7.5-11q-.6-1.5 1-1.5 1.5-.1 1.6-1.4c0-.7.9-2.5 2-4 2.5-3.1 2.5-3.6 0-3.6-1.1 0-2.3.8-2.6 1.7-1.4 4.6-5.4 7.4-5.4 3.9q0-1.6-.7-1.6c-.5 0-.8-1.1-.8-2.4 0-2 .3-2.3 1.9-1.4q1.8 1.1 2.6-.2c.4-.7 2.5-1.6 4.6-2 3.3-.4 4.2-1.2 6.3-5 1.4-2.5 3.3-5.1 4.4-6s1.7-2 1.4-3.1q-.4-1.9 1.9-3.8c1.3-1 2.4-3 2.4-4 0-1.2 2.2-5 5-8.2q7.5-8.9 5.5-12c-.3-.4 0-1.6.8-2.4s1.3-2.5 1-3.7q-.2-2 .3-1.1c1 2 2.3 1.5 4.9-2.5 1.5-2.3 2.3-4.6 1.9-5.5q-.4-1.6.6-1.7t.4 1.2q-.8 1.3 1-.1c.9-.8 1.4-2.1 1-3-.2-.8 1-2.7 3-4.7s4-5.2 4.6-7.4 1.5-3.8 2-3.5q1 .6.9-.2c-.6-3.4.4-6.1 2.5-7.3 2.8-1.4 4.2-4 2.7-5s1.2-4 3.3-3.7q1.7 0 2.3-1.1.3-1.1-1.5-1.2c-1.8 0-1.7-.3.8-3 1.5-1.7 3.3-3 3.9-3s1-.8 1-1.8 2-3 4.6-4.5c5.3-3.4 10.8-9.4 9.9-11q-.7-1 1.5-.4c1.2.3 2.7-.1 3.5-1s2.2-1.3 3-1.3c2.5 0 1.3-2.4-1.2-2.8s-3-1.7-1-2.5c.9-.3 2.3.6 3.3 1.9 2.2 2.9 3 3 3.8.4q.6-1.9 2.6-2c2-.1 2-.3 2-.8q.1-.8 2.4-1.7a4 4 0 0 0 2.2-3.2c0-1.2.4-2.5.8-3s.7-1.8.8-3.2q-.1-3.4 1 .9c.4 1.9.5 4.4.2 5.5q-1 2.6 1 .6 1.9-1.5 1.5-5c-.3-4.1 2.5-5.3 3-1.4q.4 2.1 1.4 2.3c1 .2.8-1 .5-2q-.6-2.1 1.3-2c2.8 0 3.5 1.9 1.4 3.5-1.8 1.4-1.8 1.4-.1 1.5 2.4 0 5.7-1.8 8.4-4.7a7 7 0 0 1 5.8-2.3c1.9 0 3.5-.4 3.5-1 0-1.4-8.5-2.3-18.1-1.8-5 .3-8.6.2-8.3-.3.9-1.5-19.8-1-25 .5-4.5 1.4-9.6.5-9.6-1.7 0-.4-1.3-.7-3-.7s-3 .4-3 1-1.3 1-3 1-3 .4-3.2.9-5.7.6-14.5-.1c-9.7-.8-16.8-.8-22.5-.1-4.7.6-9.3.6-10.6 0-1.3-.3-12.3-.8-24.5-1l-22.2-.1 18-.6c10.3-.3 1.3-.5-21-.4-21.4 0-39.1.2-39.2.3q-.3.2-.3 2.3c-.1 2.2-.1 2.3-1.5.4-2-2.7-2-3.6.5-3.6 1 0 2-.5 2-1 0-1.3-3-1.3-5 0m155.6 20.5q-.2 1.4-.8 2c-.5.5-.4-1.5 0-3.3.4-1 1 0 .8 1.3m-6 17.7q-.4 1.1-.5-.6t.5-1.3q.5.6 0 1.9M956.7 295c0 1.6-.5 3-1 3q-1 .2-2 2.2c-.7 1.9-1 1.4-1-2.4 0-4.2.7-5.4 3.3-5.7.4-.1.7 1.2.7 2.9m1 7q0 2-1.5 1.4-1.8-.6-.4-2 2-3 1.9.6m-135.3 11.2q-.5 1.1-.6-.6t.5-1.3q.5.6 0 1.9M946 317l.6 3.5-1.4-3c-.7-1.7-1.1-3.4-.8-3.8.7-1.2.9-.7 1.6 3.3m-123.3.7q0 1-1 2.3c-1.1 1.8-2.5.7-1.7-1.5.6-1.5 2.7-2.1 2.7-.8m116.5 4-.8 3.8-.7-3c-.3-1.7-.2-3.6.3-4.3q2.4-2.8 1.2 3.5m-.3 14.5q-1 1-2 .4c-1-.6 0-1.1.8-1.6 1.9-1.2 2.7-.3 1.2 1.2m-135.4 1.6c.4 2.5-1.3 3-2.2.6q-1.5-3.8.7-3.2 1 .6 1.5 2.6m-13 31.8c-.3 3-2.8 4-3.5 1.4q-.6-1.8.5-.1c1.4 2 2.4-.2 1.6-3.6q-.8-3.1.5-1.7c.7.6 1 2.4.9 4m-17.8 21q0 3-1 1.8c-.6-.6-.8-1.8-.4-2.7q1.4-3.6 1.4 1M896 394c.4 1.7 1 3 1.5 3q.7.2 1.4 1.7.8 1.9-1.8-.7c-2.5-2.5-5-9-2.8-7.6.6.3 1.3 2 1.7 3.6m4-.1q.4.9-.5 1.6-.9.4-1-1 0-2.6 1.5-.6m-10.8 2.3q-.5 1.1-.6-.6t.5-1.3c.3.3.4 1.2 0 1.9m3.4 16.9q0 .9-1 .4c-.5-.3-1-1.1-1-1.6q.1-.9 1-.4a2 2 0 0 1 1 1.6m-135 8.4q-.1 1.4-1.5 1.5-1.4 0-1-1.5.7-1.4 1.6-1.5c.9-.1.9.7.9 1.5m-8 13a11 11 0 0 1-3.4 2.6q-2 .9.8-1.3 3-2.5 2-4-.8-1.6.6-.1c1 1 1 1.5 0 2.8m-7 16.5q1.1.9.8 1.6c-1 .9-3.8-.3-3.8-1.6q0-1.9 3 0m121.4 4.7c.9 2.2-.5 3.4-3.2 2.6-2.2-.5-2.2-.7-.6-2.4 2-2.3 3-2.4 3.8-.2m-128 1.9q.5 1.3-.4.9c-1-.4-1-1-1-1.6q.2-2 1.4.7m124.6 5.6c0 .5-1 .8-2 .8-1.8 0-2-.3-1-2.1 1-1.7 1.4-2 2-.8q1 1.4 1 2m-125.5.3c-1.1.8-2.3 1.2-2.7 1q-.8-.3-.8 1c0 1.4-.5 1.4-1.1 1-1.5-1 1.9-4.4 4.4-4.4 2 0 2 0 .2 1.4m6.4 4c.2.4-1.4.6-3.7.6s-4.2-.4-4.2-1 7-.3 7.9.5m-16.5 9.9c-.3 1.4-1.2 2.6-2 2.6-1 0-1-.6.4-3q3-5.1 1.6.4m-4.7 6.8q-.5 1.1-.6-.6t.5-1.3c.3.3.4 1.2 0 1.9M834.7 513a7 7 0 0 1-1 3q-1.1 2-1-.6c0-1.2-.5-2.5-1-2.8-1.5-1-.2-2.5 1.5-1.8q1.4.7 1.5 2.2m-7.5 4c-1 1.5-2.5-.4-2.5-3q-.2-1.7 1.6.3 1.4 1.5.9 2.8m3.9 5.4q-.6 2-2.1.4c-1.3-1-1.3-1.3.4-2 2.3-.7 2.5-.5 1.7 1.6m-137 9.2q1 2-1 .4-2.4-2-.5-2 .9.1 1.5 1.6m121.5 3.5q.8 1.8-1.2 0c-1.5-1.2-1.7-1.1-1.7.3q.1 1.5 1.5 2.2t1.5 1.5c0 1.4-4-1-4.7-2.8-.6-1.5 1.5-3.5 3-3q1.1.5 1.6 1.8M689 537q.5.9-.4 1c-.5 0-1.3-.5-1.6-1q-.5-1 .4-1a2 2 0 0 1 1.6 1m-.8 2.6q-.6.5-2 0-1-.4.7-.5c1-.1 1.7.2 1.3.5m4.9 4.2c-.8.9-1.8 1.3-2.2 1-.8-1 1.9-3.7 2.9-3.1q.7.6-.7 2m118.5 3.4c-1.3 1-2.6 1.7-2.8 1.5-.8-.8 2-3.5 3.7-3.5q1.6 0-1 2m-124-.1q-.2.9-2.2.9-3.2.2-.3-1l2.3-.8q.1 0 .2.9m-25.2 47.4c.3 3.6.2 3.8-1.3 2.2-2.3-2.3-2.8-6.8-.6-6.4q1.6.3 1.9 4.2m120 7q-1 2.4-1.5 2.2c-.5-.5 1.5-4.6 2.2-4.6q.3.1-.7 2.5m-7.7 12.4q-.9 1.6-.6 2.5.3.4-1.3-1c-1.5-1.3-1.5-1.6-.2-2.4q3.7-2.2 2 .9m-10.8 1.3c-1 .9-1.5.9-2.4 0s-.7-1.2 1.2-1.2 2 .3 1.2 1.2m4.2 4q-.6 1.6-1.5 1.8c-1.1 0-1.2-3.4-.2-4.4s2.4.9 1.7 2.7M641 621c-.2.5-1.3 1-2.2.9q-2.1.1.3-1c2.7-1 2.7-1 2 0m5.5 3.2c0 1.8-1.8.9-2.3-1.2q-.7-2.3.9-.8 1.3 1 1.4 2m122 .4q-.1 1.3-1.1 1.5-1.2.2-2.5 1.7c-1.1 1.5-1.2 1.3-.2-1.5 1.3-3.3 3.8-4.4 3.8-1.7m-6.4 8.2c.2 1.4-.1 3.4-.6 4.2-.7 1-1 .2-1-3.3 0-5.1 1-5.7 1.6-1M645 645.2q.3.9-.4 1-1-.1-1.1-1 0-1 .4-1 .6 0 1 1m-1.7 3.6q-.6.5-2 0-1-.4.7-.5c1-.1 1.7.2 1.3.5m107.9 9.2q-3.4.6-2.1-1.8.6-1.2 2.2.2c1.5 1.2 1.4 1.3-.1 1.6m-1.8 4.2c-1.4 2.2-2.4 1.9-1.5-.5q.6-1.3 1.7-1.5c1-.2.6.7-.2 2m-101.1 2.2q-.5 1.1-.6-.6t.5-1.3c.3.3.4 1.2 0 1.9m11.4-1.3c0 1.8-1.8 2-3 .6-1-1.3-1-1.5.9-1.5 1 0 2 .4 2 .9m-6 1q0 1-.3 1-.5 0-1.1-1-.4-.9.4-1 1 .1 1 1m-3.1 1.5c-.2.7.8 2.3 2.2 3.4 2 1.7 2.2 2 .8 2.2-2.1 0-4.8-3.7-4.1-5.6s1.5-1.8 1 0m11.3 1.6q0 .9-1 1-.9.2-1 2.2c0 2-.1 2-1.7.5s-1.6-1.8.2-3.2q3.5-2.7 3.5-.5m79 11q-.2.9-2.2 1-2.8.1-.8-1 3-2 3 0m-8 4q-.2.9-2.2 1-2.8.1-.8-1 3-2 3 0m2.5 5c0 2.2-3 1.8-3.3-.3q-.6-2 1.5-1.5 1.6.5 1.8 1.8m-59.5 11q0 .9-.4 1-.5-.1-1.1-1-.4-1 .4-1 1 0 1 1m41.5 17c-.6 1.2-2.4.3-2.4-1q.1-.8 1.5-.4 1.3.7.9 1.5m-3.7 3q-.5 1.1-.5-1.1c0-2.2.2-2 .5-1.3s.2 1.9 0 2.5m-24 13q-.5 1-.5-1.2c0-2.2.2-2 .5-1.3s.2 1.9 0 2.5m9.3-.8q0 .6-1 1t-1-.3q.1-1 1-1.1 1 0 1 .4m-3.2 3.8c-.6 1.8-2.8 2-2.8.4q.1-1.5 1.6-1.6c1.5-.1 1.4.5 1.2 1.2m4.2 11.5c0 1.7-1.5 1.6-3-.1q-1.6-1.7.9-1.3 1.9.2 2 1.4m171.9-520c6.7.2 17.7.2 24.5 0 6.7-.1 1.2-.3-12.3-.3s-19 .2-12.2.3m67 0c2.3.2 5.9.2 8 0s0-.4-4.3-.4-6.1.2-3.7.4m31.5 0c3.2.2 8 .2 11 0s.3-.3-5.8-.3-8.4 0-5.2.3m33.5 0c2.3.2 6 .2 8.5 0 2.3-.2.4-.4-4.3-.4s-6.6.2-4.2.4m27 0c2.3.2 5.9.2 8 0s0-.4-4.3-.4-6.1.2-3.7.4m17.8.8q-1.7 1.4-1.3 3c.9 2.3 3 1.9 2.4-.5q-.7-2.1 1.4-2 1.7-.1 1.9-1c0-1.4-2.2-1.2-4.4.5m-833.8 1.2c14.5.2 37.9.2 52 0 14-.1 2.3-.2-26.3-.2s-40.2 0-25.7.2m124.7.3q-.3.9 1.4 1 1.9-.1 2-1 0-1-1.3-1-1.8 0-2.1 1m11.3 0c1.7.4 4.7.4 6.5 0 2.5-.6 1.9-.8-3.3-.8s-5.8.2-3.2.8m594.5-.3c3.7.2 9.7.2 13.5 0 3.7-.2.6-.3-6.8-.3s-10.5 0-6.7.3m86.4 0c1.8.2 5 .2 7 0q2.8-.3-3.2-.4c-3.8 0-5.5.2-3.8.4m21 0c-2 .5-3.2 5.2-1.8 6.6q1.1 1.1 1.7-2.1.7-3.2 2.5-3.2c1 0 1.9-.5 1.9-1q.2-1.5-4.2-.3m4.3 2.9q-3.5 5.6-.3 3.5c1-.7 3.6-7.1 2.7-7.1a15 15 0 0 0-2.4 3.6m-918.8-.6q-2.2 1-2.3 3c0 1.6.3 1.8 1.8 1l3.5-1.4c1.9-.6 2.4-3.6.5-3.5-.7 0-2.3.4-3.5.9m49.5.3c-2.1.6-3.8 1.4-3.8 1.9 0 1.3-3.3.9-5.4-.7-2.3-1.7-6.2-2-7.1-.5-.3.5-1.1 1-1.6 1q-.9-.1-.3-1.1c.5-.8-3-1-12-.8-11.4.4-12.7.6-14.8 2.6l-2.2 2.3h3.2q3 0 2.7-1-.5-1 1-1c1.5 0 1.3-.5 1-1q-.3-1 1.6-1c2 0 2 0-.2 2L147 235h2.3q2.2 0 1.6 1.3c-.6 1.3.4.9 3.4.6 4.3-.6 12.8 2 19.6 6.3 1.7 1 3.8 1.9 4.7 1.9s1.9.7 2.3 1.5q.7 1.4 2.5 1.5c1.8 0 2.2.9 2.6 2 .3 1 2 2.6 3.7 3.5 3.6 1.8 4 1.8 3.3.5q-.4-1 .4-1 1 .2 1 1.5c0 1.3.6 1.5 1.3 1.5q1 0 .5.7c-.4.4.5 1.9 1.9 3.4 2.4 2.5 3 2.7 8.3 2.3s5.5-.4 3.4 1.2c-1.3.9-2.3 2.3-2.3 3.2 0 1.2-.6 1-2.7-1-2.6-2.2-2.6-2.2.2 1.3 3.6 4.3 6.7 6.7 5.9 4.4q-.6-1.5 1.3-1.5c1.9 0 2.3 1.2 3.2 3.5.7 1.9 1.7 3.5 2.2 3.5s.9 1 .9 2.5.5 2.5 1 2.5c1.3 0 5 3.7 5 5q.1 1 1 .5c.6-.4 1 .7 1 2.4q0 3 1.5 3c1.5 0 1.5 1 1.5 3.2 0 1.7.4 2.8 1 2.4q1-.5 1 1c0 2.8 2 6 3 4.5 1.2-2 4.3-.4 3.5 1.9-.3 1-.1 2.2.4 2.5q1 .8.4 2-.4 1.5.6 1.6c1 0 6 4.7 6 5.8q-.1.3-1.4-.2t-1.5.4q.1 1 .8 1c.5 0 1.5 1.8 2.2 4 1.5 4.5 4 7.4 4 4.6q-.1-2.7 3-.6 2 1.1-.5 1c-1.7 0-1.5.5 1.5 3 1.9 1.7 2.9 3 2.2 3s-1.2.9-1.2 2q.1 1.9 1.6 2c1.3 0 1.5.7 1 3.6-.5 3.6 2.2 11.4 3 8.7a5 5 0 0 0-.5-3.2q-2.4-4.4.9-1.1c1 1 2.4 2 2.8 2s.8 1.8.9 4c.2 4.5 4 10.2 8.6 12.6 3.2 1.7 3.6 3.9.6 3-2-.4-2-.3-.5 1.3q1.5 1.6 1.6 2.4a12 12 0 0 0 2.5 3 8 8 0 0 1 2.5 5.7c0 1.7.4 2.9.9 2.5s1.3 0 1.6.6a2 2 0 0 0 2 .5c1.7-.6 3 1 1.5 1.9-2 1-1.1 5.6 1 6.2 1 .3 2 1 2 1.8s1 2.8 2.4 4.7 2.8 4.8 3.3 6.4 1.8 3.4 2.9 3.9l4.6 2.8c1.5 1 3.2 1.6 3.8 1.2q.9-.5 1 .4c0 2-2.2 2.2-4.2.4-2.5-2.1-2.5-2.1 1.8 8 2.3 5.3 3.3 6.7 4.7 6.3 1.3-.3 1.7.2 1.7 2.5 0 3.6 3.2 10.3 3.8 7.8.3-1.7 4.2-1.5 4.2.2q-.1.8-1.5.3c-2-.8-2 .7 0 3.2q1.4 1.6 1.5.6t2.3-1.1h2.2l-2.2.9c-2.1.9-3.3 4-1.5 4 .4 0 1.3 1.3 2 3 .8 1.6 2 3 2.9 3q1.4 0 .9 1.5-.3 1.4 1.5 2.9 2.2 1.4.7 1.9c-1.5.5-1 .9.5 2 .9.8 1.7 2.2 1.7 3s.7 2 1.5 2.3c.8.4 1.5 1.5 1.5 2.5s.4 1.9.9 1.9 1 1.2 1.3 2.7c.2 1.6 1.2 3.2 2.4 3.8 1 .6 1.9 1.6 1.6 2.4s.2 1.9.9 2.5c.8.6 3 3.7 4.9 6.8 1.9 3.2 3.8 5.8 4.2 5.8s.8.5.8 1.2c0 2.2 5 11.7 6.9 13 1 .7 2.6 3 3.5 5.2s2.5 4 3.6 4.3q2 .5 2 3.2c0 3 3.5 11.2 4.7 11q4.4-.9 4.2 2.8l-.1 2.8-.7-2.5q-.7-2.3-1.4-1.3c-1 1.7.2 4 2.4 4.6q1.7.5 1.9 1.7.1 1.4-1.7-.1-2.2-2.1-.3 1c.7 1.5 1.9 3.4 2.8 4.4 1.8 2 3.9 5.5 4.8 7.8.4 1.3 1.4 1.5 4.5.9l4-.8-2 2.2c-3.2 3.4-2.6 6 1.9 9.7 3.5 2.8 5.7 6 3 4.4q-.9-.4-1 .4.1 1 1 1c.6 0 1 1.2 1 2.5 0 2.7 1.6 4.3 2.3 2.4.2-.7.9.5 1.6 2.8a16 16 0 0 0 3.6 6.4c1.3 1.2 2.2 2.7 1.9 3-.6 1 5 11.3 7.2 13 1.3 1.2 1.9 1 3.4-1l1.8-2.4-.5 2.7c-.3 1.4-1.3 2.8-2.2 2.9q-1.7.4 1.5 2c1.8 1 3.6 3 4.2 4.8.6 1.6 1.6 3 2 3q1.1 0 1.2 1.2 0 1.4-1.2 0c-1.6-1.6-2.8-1.5-2.8.3q.1 1.3 1.4 1.5 1.3 0 .9 2-.6 2 1 2c1.6 0 3 3.4 3 7.4q.4 1.6 1.6 2.4 1.5.6.7-1.4c-.7-1.7-.6-1.7 1.3 0 2.7 2.5 3.5 5.4 2 7q-1.5 1.8.5 1.6 1.5.1 1.6 1.6 0 1.3 1 .9.9-.3 1 1.3c0 1 .7 2.5 1.5 3.2q1.8 1.6.9-.5-.8-1.9.4-1.1c.7.4 1.2 2.3 1.2 4.2 0 3.9 2.9 7.4 6 7.4 2 0 2 0 .4 2.5q-1.5 2.3-.7 2.5c.6 0 1.8 1.8 2.8 4s2.4 4.5 3 5 1 1.9.8 2.7q-.5 1.5.9 2.7 2 1.9 3.7 5.9c1.9 4.2 5.2 7 3.7 3q-.5-1.2.4-.8 1.2.8 1 2 .2 2.7 2.8.3 1.3-1.5 1.2.8 0 4.2-2.7 2.3-1.4-1.5-1.3.5c0 .9.7 1.9 1.5 2.2s1.9 2.3 2.5 4.3c1 4 3.9 8.5 4 6.3 0-.7-.4-2.2-1-3.2q-1.1-2 .9-2.3c1.7-.4 2 .3 2.6 5.9.6 5.9 2.3 9.4 4.6 9.4.5 0 .9 1.4.9 3q0 3 1 2.5c1-.5 2.6.7 4.6 2.4s3.9 3 4.5 3 .8.5.5 1c-1 1.4-5.6 0-5.6-1.7q0-1.7-1.1-.5c-1 .9-.2 2.6 2.7 6.8a134 134 0 0 1 6.2 9.8c1.2 2.3 3 5.3 4 6.7s2.5 4.3 3.2 6.4c1.2 3.7 1.3 3.8 2.7 2q1.8-2.8.8.8c-.4 1.6-.3 2.8.2 2.8 1.3 0 4.6-6 4.7-8.4 0-1.2.8-2.1 1.6-2.1s1.6-1 1.8-2.2c.3-2.3-1.2-3.1-2.3-1.3-1 1.7-2.6 0-2-2.1q.7-2-.8-1.3-1.5.4-2-1.6-1-2.5 1.6-1.4c4.2 1.3 6.7 2.4 6.7 2.8q-.1.5-1.5 0c-2-.8-2 .6.3 2.2 1.9 1.5 3.3 1.8 3 .6-.1-.4 1-3 2.5-6s2.7-5.8 2.7-6.6q.1-1.2 1.4-2c1.3-.7 1.6-2 1.8-3.8.2-2.6.8-3.4 2.6-3.6 1.7-.3 2-.8 1.7-2.3-.4-1-.2-2 .4-2s1.3-1 1.7-2.4 1.9-4 3.4-5.5c1.6-1.7 4-6.1 5.7-9.8 1.6-4 3.3-6.7 4-6.5q1 .2 1.8-1.6c.3-1.2 1.3-2.1 2-2.1s1.5-.8 1.5-1.8c0-1.1.9-2.7 2-3.7s2-2.2 2-2.6 2.2-4.5 5-9 5-9.3 5-10.6.6-2.3 1.4-2.3c2 0 4.6-4 4.6-7.1q0-2.6 1.9-3.2c2.3-.6 6-7.5 6-11.1 0-4-6.6-15.6-11.6-20.4-3.5-3.4-4.2-4.6-3.2-5.3q1.5-.7 0-2.1a5 5 0 0 1-1.1-3.2c0-2 0-2-1.4 0-1.8 2.4-3.1 1.3-1.6-1.5q1-2.1 0-2.1c-.5 0-1-1.5-1.1-3.3a20 20 0 0 0-3-7.7l-6-10.3a24 24 0 0 0-5-7c-1-.6-2-1.8-2-2.5s-.3-2-.8-3-1.2-2.5-1.5-3.6q-.6-1.9-2.6-1.3-3.9.7-2.1-3.2c.8-1.5.7-1.8-.5-1.7q-1.6 0-2-3-.4-3.1.6-1.4c2 3.2.9-1.2-1.5-6-2.5-5-5-7.6-4-4.3q.5 1.5-1-.7c-1.4-2.2-1.4-3.7-1.5-5.1 0-2.3-.4-2.6-3.1-2.4-3.1.2-3.1 0-2.6-3.7.3-2.1.2-3.8-.2-3.8s-1.3-1.8-2-4c-1-3.3-1.6-4-3.6-4q-4.4 0-1-2.4c1.4-1 1.2-1.7-1.6-5.6a17 17 0 0 1-3.3-7c-.1-1.2-.7-2.5-1.5-2.8q-1.4-.5-.8 1c.5 1.4.2 1.6-1.8.8q-2.5-.9-3.1 0t-2-.7c-1-1.5-1-2 .2-2.6.8-.4 1.4-2.2 1.4-4 0-4-9-20.7-11.1-20.7s-3.2-3.7-1.5-4.4q1.2-.4-.1-1.3c-.6-.4-3.5-5.5-6.4-11.1-6.4-12.8-11.8-17-12-9.4q0 2.4-.6 1.2c-.4-.8-1.2-2.1-2-2.8-1.1-1.1-1.1-1.6.2-2.8q1.4-1.5 2.3-1 .8.2 2-1.5 1.5-2.2 0-1.7-1.2.3-1.1-2.5c0-1.5-.2-2.7-.8-2.7q-.9-.2-1-1.5c0-1.3-.3-1.5-1-1.5-.4 0-1-1-1-2q0-2-2-2t-2-2.4c0-1.4-.3-2.8-1-3.1-.4-.3-1-1.5-1-2.5 0-1.1-1.2-2.5-2.8-3.3-3-1.5-3-1.4-4.6 2-2.2 4.5-2.8 3.8-1-1.2 1.9-5.5 1.8-7.2-.5-9.2-1.1-1-2-3-2-4.3a25 25 0 0 0-7.4-14.3c-1.4-1-2.6-2.5-2.6-3.5s-1-3.2-2.1-5.1c-1.8-3-1.8-3.3-.3-2.7q1.8.8-1-2.6c-1.5-1.8-3.5-5-4.4-7s-2.5-4-3.5-4.2c-1.6-.4-1.7-.8-.7-2.6.9-1.7.8-2.6-.5-4.6-1.6-2.5-4.5-3.3-4.6-1.2-.1 2.3-1.8-2.6-1.8-5.4-.1-1.6-1-3.3-2.1-4a5 5 0 0 1-2-4.1c0-1.5-.7-3-1.5-3.3a3 3 0 0 1-1.5-2.5q-.1-1.9-1.5-2.5t-1.5-1.8c0-2.2-2.5-6.6-3.7-6.6q-1.1-.1-.7-1.5.6-1.5-1-1.5-1.4.1-.8-2.2.3-2.1-.5-1.5c-.8.6-1.6 0-2.3-.8s-1.6-1.2-2.1-1q-1.8 1.3.3-3c1-2.2.8-2.8-1-4.8-1.2-1.3-2.2-3.1-2.2-4s-.4-1.7-1-1.7-1-1-1-2-1-3-2-4-2-2.8-2-3.8c-.1-2.1-2.3-5.2-3.8-5.2-.5 0-.8-1-.5-2s0-2-.6-2-2.2-1.8-3.6-4.1c-2.2-3.3-3-3.8-4.1-3q-1.5 1.3-1.4.3t2-1.7c1.8-.7 2-1 2-1.5s-.6-.7-1.4-.4c-1.5.6-3-2.1-2.7-5.1.3-2.8-2.6-6.4-3.7-4.7s-6.2-.1-6.2-2.2c0-2.4 2.8-4 3.3-2q.4 1.4.6-1.4c0-2.6-.4-3.5-1.8-4-3.6-.8-5-16.4-2-20 4.2-4.4 1.8-4.5-52.4-3.7-36.1.5-49.7.4-49.3-.4q.7-1-3.4-1.1-4.3 0-3.4 1 .8 1.3-1.7.7c-5.4-1.3-30-2-30-.8 0 .6 1.3 1.2 2.9 1.2s-1 .5-5.5.9c-9 .8-22.8-1.2-15.3-2.2 1.9-.3 0-.5-4-.5s-9.2.4-11.2 1m-20.5 2.4c-.7.2-2.1.2-3 0q-1.3-.5 1.2-.5 2.6 0 1.8.5m4.8 4q2 2.2-.8.4-3.7-2-1.4-2.1c.5 0 1.5.7 2.2 1.7m10 4.4c2.6 1.3.8 3-2.2 2.2q-3-.8-1.2-2.6c.9-1 1-1 3.5.4m7.6 4.6c-1 .2-2.8.2-4 0q-1.8-.3 1.7-.4t2.3.4m9.2 2.3c0 1.8-.3 1.9-2.1.9-1.7-1-2-1.3-.8-2q3.1-2.1 2.9 1m-5 1q-.1 1-1.1 1-.8 0-.4-1 .6-.9 1-1 .5.1.5 1m171.7 19.6q-.7 1.4-1.7 1.5-1 0 0-2.1c1.3-2.3 2.6-2 1.7.6m-137 12.3c-1.4 1.7-2.2 0-1.2-2.6.5-1.4.7-1.4 1.5-.2q.8 1.5-.3 2.8m149.3 6.8q0 1.3-1 .9c-.5-.3-1-1.3-1-2.1s.5-1.2 1-1c.6.4 1 1.4 1 2.2m5.4 7.6c-.4.5.4 2 1.7 3.4 2.2 2.4 2.2 2.4 0 2.4-1 0-2.3.4-2.6 1-1 1.5-2.5 1.2-2.5-.5q.2-1.4 2-1.5c2.4 0 2.6-1.3.5-3a6 6 0 0 1-1.5-4c0-2.4 0-2.4 1.5-.6.8 1 1.2 2.3.9 2.8m-2.8 13.5c-.7.7-2.6-.7-2.6-2q0-.8 1.5.3 1.4 1.2 1 1.7m-132 13q-.6.4-1.8-.6-1.5-1.5.6-.5 1.6.6 1.2 1.2m153.6 9.5c-1.3 1.3-2.6.3-1.6-1.2q.6-1 1.7-.5 1 .6-.1 1.7m9.5 22.4q-.7.5-1.6-.7c-1.6-2.5-1.1-3.5.7-1.7.9.9 1.3 2 .9 2.4M274 357.7c1.2 3.2.6 5.4-1.4 5.4q-1.8-.1-2-1 .1-1 1.5-1c1.9 0 1.9-2 0-2.6q-1.2-.7-1-1.5c.9-1.4 2.2-1.1 2.9.7m146.9 1q.3 1-2 1c-1.2 0-2.3-.2-2.3-.7 0-1.1 3.7-1.2 4.3-.2m-1.6 5c-.4.3.3 1.8 1.5 3.2l2.3 2.5-2.5-1.6c-2.7-1.7-4-4.8-2-4.8q1.2 0 .7.7m-8 2.8c.8 2.2-.6 3.3-1.7 1.5q-1.9-3 0-3 1 .1 1.7 1.5m5.3.5q0 .9-1 1a1 1 0 0 1-1-1q.1-1 1-1t1 1m12 17q0 .9-.4 1-.6-.1-1.1-1-.4-1 .4-1 1 0 1 1m-129.4 21.8q-.6.4-1.8-.7-1.5-1.4.6-.5 1.6.6 1.2 1.2m10.9.6q-.6 1.3-2 .9c-1.7-.6-1-2.3 1-2.3q1.4.1 1 1.4m142.9 13q.7 1.4-2.4 1.2c-1.6-.1-3-.4-3-.7 0-2.1 4.6-2.6 5.4-.5m-144.2 1.3q1.5 2.2 0 .6c-.7-.6-2-1-3-.6q-1.5.6-.7-.5 1.3-2.5 3.7.5m150 14.2c-1.1.7-1 1 .5 1.9q1.6 1 1.3 1.6c-.3.6-1.4 0-2.4-.8-1.7-1.2-1.7-1.6-.6-3q1.3-1.5 2-1.1.3.6-.8 1.4m-132.1 3q-.1.9-1.6 1.5-3.6 1.4-1.4-1c1.4-1.6 3-2 3-.5m.5 5.2c0 .7-1 1.5-2 1.7q-2.2.3-.6-.6 1.2-1 .6-2.2t.6-.8q1.3.5 1.4 1.9m133-1.1q.5.9-.4 1c-.5 0-1.3-.5-1.6-1q-.5-1 .4-1a2 2 0 0 1 1.6 1m7.5 9.2q0 .8-1 .8-.9-.2-1-2.3-.1-2.7 1-.7.9 1.4 1 2.2m-7-.2c0 .5-1 1-2 1s-2.2-.5-2.5-1c-.4-.6.5-1 1.9-1s2.6.4 2.6 1m-118 5.5q0 1.4-1 2-1 .4-1-2c0-2.4.4-2.4 1-2q1 .6 1 2m0 9.7q.1 2.6-1 .8-.7-1.4-.4-2.2 1.4-2.1 1.4 1.4m-3.8 3q-1.1 1-1.2.2c0-1.4 1.2-2.6 1.9-2q.2.8-.7 1.8m3.8 6c0 1.8.3 4.4.6 5.8q.8 2.7-.6 1.4C341 481 340 472 341.5 472c.6 0 1 1.5 1 3.2m15 14q-1.2 2.1-1.7 1c-.4-1.3 1.7-4.6 2.5-3.8.3.2-.1 1.5-.8 2.8m145 20.9q0 .8-1 .9-.8-.1-1-1.6.2-1.2 1-1 1 .6 1 1.7m8 18q0 .9-1 .4c-.4-.3-1-1.1-1-1.6q.2-.9 1-.4a2 2 0 0 1 1 1.6m-1 4q-.1.8-1.4.9-1.4 0-1-1.5c.7-1.5 2.5-1.1 2.5.6M390 533.7q1.4.6 1 1.5c-.8 1.4-3.1 1-3.8-.6q-1-2.4 2.8-1m-8.1 4.5c-.5 1.9-3.3 2.9-3.3 1.2 0-3 1.4-5.2 2.5-4.2.7.6 1 2 .8 3m1.7 10q0 1-1 .5c-.5-.3-1-1.1-1-1.6q.1-.9 1-.4a2 2 0 0 1 1 1.6m6.5 1.9c-.3.5-1.3 1-2.1 1s-1.4-.5-1.4-1q.2-1 2-1t1.5 1m135.2 9.2q-.5 1.1-.6-.6t.5-1.3c.3.3.4 1.2 0 1.9m-133.6 2q0 .8-1 .8-.9-.2-1-2.3-.1-2.7 1-.7.9 1.4 1 2.2m14 8.8c0 3.4-1.3 4.5-3 2.6q-1.1-1.4 0-2.1c.5-.3 1-1.5 1-2.6s.5-1.7 1-1.4 1 1.9 1 3.5m140 21.2.5 3.8q.9 3.5-.4.2c-1.1-2.4-3.1-3-3.1-1q0 1.3-1-.2-.8-1.6.2-2.7c1.3-1.7 3.8-1.7 3.8-.1m-132.4 7q.6 1-.4.4c-.5-.3-1.3 0-1.5.6q-.5 1.2-.6-.5c-.1-2 1.4-2.3 2.5-.5m7.4-.2q-.1.8-1.5.4-1.4-.6-1.5-1c-.1-.4.7-.4 1.5-.4s1.5.4 1.5 1m2 4q0 .9-.4 1-.5-.1-1.1-1-.4-1 .4-1 1 0 1 1m133.8 11.2c3.2 3.6 4.2 5.7 1.8 3.8a24 24 0 0 1-5.5-5.5c0-1.2 1.8-.3 3.7 1.7m-118 18q-.5 1.1-.6-.6t.5-1.3c.3.3.4 1.2 0 1.9m26 46.4c-.2.3-1.1.4-1.8 0q-1.1-.4.6-.5t1.3.5m6.3 9.9q0 2.5-1.5 2.5c-1.8 0-1.8-.5-.5-3.1q2-3.9 2 .6m60 6.6c0 .5-1 .9-2 .9-2 0-2.6-1.1-1.4-2.3.8-.8 3.4.3 3.4 1.4m-7.3.5q-.6.5-2 0-1-.4.7-.5t1.3.5m-.7 16.4q-.1.9-1.1 1-.8-.1-.4-1 .6-1 1-1t.5 1M492 728c-2 2.2-3.1 2-2.2-.5q.8-1.4 2.3-1.5c1.6 0 1.6.2-.1 2m16.5 1q-1.4.8-2.4.3-.7-.7 1-1.3c2.4-1 3.4-.2 1.4 1m-8.6 12.6c1 2.5-.1 2.9-1.4.5q-1-2-.1-2.1.9.1 1.5 1.6M1042 234c-.3.6.8 1 2.5 1s3-.5 3-1q-.2-1-2.3-1c-1.4 0-2.8.4-3.1 1M993 258.5a35 35 0 0 0-5 5c-4 5.4.3 3 4.6-2.4 3.5-4.4 3.5-4.7.4-2.6m-779.4 19.4c2.3 3.2 4 4 4 2.3 0-.5-1.4-2-3.2-3.2l-3.1-2.3zm746.6 101.4c-1.5 4.7-1.4 5.8.5 5.8q1.7-.1 1.9-1 0-1-1.2-1-1.5 0 0-1.2 1.1-1.2 1.2-2.5c0-1.7-2-1.7-2.4-.1m-731.6 3.3a5 5 0 0 0 1 2.5q.9 1.4-.2 2c-1.1.8-1.3 10.6-.7 27.5V587c0 91.6.2 181.3.6 199.4.5 27 .4 32.8-.7 32-1-.5-1.2.4-.7 4.7.3 3 .3 4.5 0 3.4-1.2-4.6-2.3-3.6-2 1.8 0 3 .5 5.7 1 5.7 1.3 0 .8 9.5-.7 11.5-1.3 1.9-2 5.2-3.1 13.8-.3 2-1 4.8-1.6 6q-1.5 2.2 0 2.5c1.5.3.8 1-.4 2.8-1.1 1.7-1.3 3.5-1 6.6.8 3.9.7 4.2-.8 3-2.2-2-4-.5-3.3 2.4q.6 2.3-.5 2.4c-1.1 0-1 1-.7 2.5q.6 2.7-1.3 2.5c-2 0-4 2.8-4 5.8 0 1.6-.4 1.9-2.1 1.4q-2.2-.5-1.4.6c.4.6-.2 2-1.4 3.2-1.1 1-2 2.6-2 3.4s-1.2 2.3-2.7 3.4c-1.6 1-2.5 2.4-2 2.8s2-.8 3.7-2.7c2.8-3.1 2.9-3.2 1.9-.7-1 2.4-9.4 7.6-10.5 6.6-.2-.2 1.8-2.8 4.4-5.8l4.7-5.5-4 3.3a56 56 0 0 0-12 13.5q-.2 1-1.8 2c-1 .8-1.7 1.9-1.7 2.4 0 1.2-7.7 4.3-10.5 4.2-2-.1-15.5 4.3-18.7 6q-1.8 1.2-2.7-.7c-1-1.5-1.2-1.5-2.1-.2-1.3 2-1.3 8.3 0 7.5.6-.3 1-1.5 1-2.5q0-1.9 1.5-1.4 1.4.8 1.5 2.3c0 2.4 25.9 2.9 32.5.6a40 40 0 0 1 11.8-1.3c7 0 7 0 2.2.8-5 .7-5 .7 2 .8 3.9 0 8.6-.2 10.4-.8 2.7-.8 3.8-.6 5 .5 2.7 2.3 12.2 2 15-.5 2.7-2.3 7.7-2.5 27-1.2l11.6.7-8 .6c-4.4.4 8.9.6 29.5.6 20.6-.1 43.6.2 51 .7q13.4.8 21-.2c4.7-.7 7.8-.8 8.4-.2 1.2 1.2 4.6 1.3 4.6.2 0-.5 1.8-.7 3.9-.5 2.2.2 4.2 0 4.5-.6s1.6-.7 2.7-.4q2.3.6 1.7-.8c-.2-.8-1.5-1.6-2.8-1.7a7 7 0 0 1-3.6-2q-1-1.2-2.1-1c-.6.5-2 0-3-.7-2.3-1.8-5.3-2-5.3-.3q-.1 1.3-1.3-.3a32 32 0 0 0-10.2-6q-.6.2-.3 2.3c.2 1-.3 2.3-1 2.5q-1.1.4-1.2-2.1 0-2.7-2.2-3.5-2.7-.9-.5-1.4c2.5-1 2-2.3-1.5-4.8-3-2-3.1-2.1-1.5-.3q3.1 3.6.2 3.4-1.4-.1-1.5-1.4c0-.7-2.5-3.1-5.5-5.1-3-2.1-5.5-4.4-5.5-5 0-.7-1-2-2-3-1.7-1.6-1.8-1.5-2.5 1.6-.8 3.7-2.1 2.4-2.7-2.6q-.4-3-3.1-4.8c-2.4-1.5-2.7-2-1.6-3.3s.8-2-2-4.5c-2-1.6-4-3-4.7-3-1 0-1.1-.5-.3-2.5.5-1.5.7-3 .5-3.2-1-1-3.6 2-3.6 3.9q0 1.7-1 1.9c-.5 0-1-1-1-2s.3-2 .8-2c.9 0 .9-10.6-.1-11.6-.4-.4-.7-1.5-.7-2.3 0-1-1-2.3-2-3-1.5-1.2-1.6-1.8-.7-3.8.8-2 .8-3-.2-4.6-1.2-1.8-1.1-2.2.4-3.3 1.8-1.3 1.4-5.1-.4-4-1.1.7-2.5-4-2.2-7.4q.4-2.3 1.2-2.8 1-.8.9-3.4 0-3.4-1.5-2.4-1.4.4-1.5-.5-.2-1.4-1.5-.5-1.6.6-1.5-2c0-2.6.7-2.8 2-3.1 2.2-.6 2.3-4 0-3.5-1 .2-1.1-25.4-1-125 0-69-.1-136.6-.4-150.3-.4-15.7-.3-24.3.3-23 .7 1.5 1 .4 1-4.2 0-7.3-1.3-11.8-3.4-11-1.2.5-1.2.2-.3-1.8 1-2.1.8-2.8-1.3-4.6-1.3-1.2-2.3-3-2.1-4s-.4-2.2-1.2-2.5c-1-.3-1.6-1.8-1.6-3.3-.1-2.3-.2-2.4-1.3-1-1.2 1.6-1.4 1.4-2.6-1.4-.7-1.8-1.4-4.1-1.6-5.1-.1-1-1-2.4-1.8-3.1-1-.7-1.7-2.2-1.7-3.4q0-2.2-1.2-1.8c-.7.2-1.2 1.2-1.2 2 0 1.3-.6 1-3.1-1-2-1.6-3.4-3.4-3.4-4.1q-.1-2.7 2.8 1c1 1.2 2.3 1.8 2.9 1.4 1.9-1.1 1.4-3.3-.8-4q-1.9-.5-2-2.6 0-1.8-1-1.5t-1-1.4c0-1.2-1-2.6-2-3.3s-2-2.3-2-3.5-1.1-3.4-2.5-5-2.5-3.7-2.5-5q0-2.3-1.1-1.7c-.6.3-1 2.2-.7 4q.5 3.4-1 3.4c-1.1 0-1-3.5.4-7.8.7-2.2-2.6-7.7-3.7-6.1q-1 1.6-1-1c0-1.1-.3-2.1-1-2.1-.4 0-1-1.2-1-2.6q0-2.7-3.6-6.3c-2.2-2.1-3.7-4.6-3.7-6.1q0-2.6-1.8-2.2c-1.5.2-1.8-.5-1.8-3.7 0-2.2-.5-4.3-1.1-4.7q-1.3-.7-.4 1.7 1.2 2.9-.8 1-1.6-1.3-1-4.3c.6-2.8.4-3-1.7-2.3-2.2.7-2.3.5-1.7-3 .5-3 .2-3.8-2-5.4-1.2-1-2.3-2.5-2.3-3.3s-1-2.3-2-3.3-2-2.4-2-3.2q-.1-1.2-1.3-1.3c-.8 0-2.2-1-3.3-2.2q-2.3-2.4-.3-1.5c1.3.4 1.2-.4-.8-4.1-2.6-5-4.3-7.2-4.3-5.7M236 400c1.8 2 1.7 2-.8 2q-2.8.1-2.7-2 .1-1.8.8-2c.5 0 1.7.9 2.7 2m-.5 6c0 1-.4 2-1 2s-.8-1-.7-2 .5-2 .9-2 .8.9.8 2m6-.6q-.1.4-1.6 1-1.2.5-1-.4c.7-1 2.6-1.4 2.6-.6m-3.3 7.3q-.5 1.3-.5-1.7c0-3 .2-2.7.5-1.8s.2 2.6 0 3.5m-2.7 2q.2 1.9-1.5.3-1.2-1.2-1-2.1c.9-1.3 2.5-.1 2.5 1.8m7.5-.6c1 1.6 0 1.9-1.3.3q-1-1.3-.3-1.4 1.1 0 1.6 1m-7.3 6.2q-1.2 1.2-.5-1.3.7-2 1-1c.3.7 0 1.8-.5 2.3m14.8 9.4q.1 1.3 1 .9t1 .4c0 1.4-.6 1.4-3.1 0-2.3-1.2-2.5-3-.4-3q1.3.2 1.5 1.7m1 5.3c.5 1 1 3 1 4.2 0 3.2-2.1.9-2.3-2.4q-.2-2.2-1-2.1c-.7 0-.8 0-1.2-.6q-.4-.9.9-1c1.3-.1 2 .9 2.6 1.9m16.4 18.7q.5 1.3-.4.9c-1-.4-1-1-1-1.6q.2-2 1.4.7m-1.6 9.9q-1 2.3-1.5 2c-.5-.4 1.5-4.5 2.2-4.5q.3.1-.7 2.5m10.2.5q1.2.9.5 1c-.5 0-1.7-.5-2.5-1s-1-1-.5-1q1.1.1 2.5 1m-9 3.5q-1.2 1.4-1.7 1c-.7-.6.7-2.5 1.9-2.5q1 0-.2 1.5m22 23.5c0 .5-1 .6-2 .3s-2-1-2-1.3q.2-.7 2-.3c1.8.4 2 .9 2 1.3m13.8 20.8q2.3-1.8.3.4c-1.4 1.9-3.2 1.5-3-.5q0-1.2.6 0 .4 1.5 2 0m-73 326.3q0 1.3-.7-.5c-.5-1.1-.8-3-.8-4q0-2.5.8.5c.4 1.4.8 3.2.8 4m-1.3 32c.3.5.3 1.5-.1 2-.6 1.2-2.3-.5-2.4-2.3 0-1 1.8-1 2.5.3m-2.5 5.8q0 1.1-1 .7c-.5-.3-1-1.6-1-2.8q-.1-2.7 1-.7.9 1.4 1 2.8m95 23.2a7 7 0 0 1-3 .9q-1.5 0 .5-1c2.7-1.1 4.3-1.1 2.5 0m-115 9.6q0 1.4-1 1.5-.8-.1-.4-1.5.7-1.4 1-1.5c.3-.1.4.7.4 1.5m8 7.7c0 2-2.8.5-3.3-1.7-.4-2.5-.4-2.5 1.4-1 1 1 1.9 2.2 1.9 2.7m-9-1.2q-.1.9-1.1 1-.8-.1-.4-1 .6-1 1-1t.5 1m129.4.6q.5 1.3-.4.9c-1-.4-1-1-1-1.6q.2-2 1.4.7m-143.4.6c0 1.9-2 4.7-2 2.9q0-1.2-1.7-.7c-1.5.6-1.5.4.2-1.4 2-2.3 3.5-2.6 3.5-.8m6-.2q0 .9-1 1a1 1 0 0 1-1-1q.1-1 1-1t1 1m149 .4q-.2.4-1.5 1-1.4.3-1.5-.4.1-1 1.5-1c1.4 0 1.5.2 1.5.4m-148 8.6q0 .9-.4 1-.6-.1-1.1-1-.4-1 .4-1 1 0 1 1m152.6 0q.5.9-.4 1-1-.1-1.6-1-.5-1 .4-1a2 2 0 0 1 1.6 1m-165.3 3q2.6 2.1 2.5 2.7c-.8.7-6.7-2.6-6.7-3.7 0-1.5.9-1.2 4.2 1m14.8 5.2c0 1-.7 1-3.1-.2-2.8-1.6-2.3-3.2.6-1.8 1.4.6 2.5 1.5 2.5 2M349 931q.3.9-1.4 1-2.4-.1-2.6-1-.4-1 1.4-1c1.8 0 2.3.4 2.6 1m-8.2 7.7c-.7.2-2.1.2-3 0q-1.3-.5 1.2-.5 2.6 0 1.8.5m619.4-549.2c.7 4.3-3.3 9.9-5 7-1.2-2.1-2.7-2-2.7.5 0 1-.4 2-1 2q-.9.2-1 2 0 2-2 2c-2.7 0-3.5 1.8-1.6 3.9 1.6 1.7 1.5 1.9-1.2 2.4-3 .6-6.1 5.5-4.7 7.6q.4 1-.7 1c-1.1 0-2.1 1.3-3.1 2.9l-4 6a14 14 0 0 0-2 6.3c0 1.6-.2 3-.7 3.4q-.7.3-.3-1.7c.5-2.3.4-2.2-1.6.2a15 15 0 0 0-2.1 3c0 .5-.8 2.5-1.7 4.6a18 18 0 0 0-1.5 4.6q0 .8-1.5.9-2.3-.2.5 1.6 4.6 2.9-1 3.5c-2.5.2-3.4.8-3.6 2.5q-.5 2.1-1.8 2.3c-1.3.2-1.4.9-1.4 2s-1 2.5-2 3.2-2 1.6-2 2c0 .5-1.2 2.7-2.6 5-2.5 3.9-3.1 5.6-3.3 8.5q-.3 1.2-1.6 1.3c-2.2 0-1.8 2 .5 2.7 3 .8 2.4 2-1.5 2.7-3.6.7-7.2 4.6-6 6.6q.4.9-1 1-1.5 0-2.1 3.9c-.5 3-1.2 4-2.7 4.3-2.7.4-4.7 3.6-3 4.7 1 .6 1 1-.1 2-.8.6-1.7 2.3-2 3.6q-.7 2.4-2.5 2.5c-2.1 0-3.1 5-3.1 16.3 0 10.9 1.9 6.9 2.2-4.6.2-5.3.7-9.7 1.2-9.7s.6 5.9.3 14.2c-.4 7.9-.8 30.9-1 51.3 0 25.5-.3 32.7-.7 23-.3-7.7-.6 8.7-.7 36.5s.2 49.6.6 48.5c.4-1 1 24.4 1.5 56.5.3 32.2.9 61.6 1.3 65.5.6 6.4.5 6.9-1 5.6-1.3-1-1.7-3.2-1.8-9.5a76 76 0 0 0-1-11.1c-.4-1.8-.7 4-.6 14.7 0 9.7 0 17.3-.3 16.9-1.3-2-4-2-4-.1 0 1 .3 2 .8 2s1.3 1.3 2 2.9c1 2.3 1 3.3-.3 5.7-.8 1.6-1.5 4-1.5 5.6 0 3.3-1 5.9-2 5.3-.3-.2-.7 2-.8 5q-.3 8.7 1.8 3.2l.9-2.2v2.2c0 1.2.4 2.9.7 3.8q1.1 2.1-1.4.4c-3-2-3.3-1.1-4 8.2-.4 6.6-.7 7.8-1.4 5.8-1-2.4-1-2.4-3 1.3a25 25 0 0 0-2.1 8 12 12 0 0 1-1.4 5.6c-.7.7-1.3 2-1.3 2.8s-.4 1.3-1 .9c-1.4-1-6 5.9-6.7 9.9-.5 3-1 3.6-3.1 3.6h-2.5l2.4-2.7 2.4-2.6-3.6 2.6a43 43 0 0 0-10.5 12.2l-.2 2.2q-.3 1.1-2 .6-1.7-1-.8 1.3c.9 2.3.9 2 .7 6.6q-.1 3.8-1.5 3.8c-2 0-2.6-5.7-1-7.1.8-.6 1.4-1.6 1.4-2 0-1.2-5.2 1.5-7 3.5q-1.3 1.6-3.6 1-2.5-.6-3 1-.7 1.6-2.5 1.3c-1.8-.3-2-.1-2 .4s.7 1 1.4 1-1.3.5-4.3.9c-3.1.4-6 .3-6.7-.3s-2-.7-2.7-.4c-1.7.7-1.5 3.9.2 4.5q1.1.4 1.2 1.3c0 1.4-2.2 1-4.2-.8-1.7-1.5-1.8-1.5-1.8.5q.2 4.2 7.7 4 4.3.1 1.8-.8c-4.2-1.7 6.3-2 72-2.2 41-.2 67.6-.7 68.5-1.3 1.8-1.1 6.2-.7 7 .7s41.6.5 45-1c3-1.2 7.3-.5 6.4.9-.3.5 4 .9 10 .9 5.7 0 11.2.3 12.2.7q1.6.6 1-.4c-1-1.8 2-2.3 3.5-.7 1 1.4 1.4 1.3 2-.4.8-2.1 0-6.2-1-6.2-.4 0-1.7.7-3 1.6-2.5 1.8-4.6.4-3.7-2.3q.6-1.1-5-1.1c-4.3 0-6-.4-7.4-2a13 13 0 0 0-7-2.7c-2.7-.4-5-1-4.8-1.3.5-1.8-2.5-5.2-4.5-5.2-2.2 0-5.7-3.1-5.7-5q0-1-1-1-.9-.2-1-1.7c0-1.4.5-1.2 2.8.8a64 64 0 0 0-9.7-10.1q-.2.1 1.9 2.5c2.3 2.4 2.3 2.5.3 2.5q-2.1 0-3.2-2.8c-1.5-4-4.6-7.2-7-7.2q-2.1-.1-3.1-2.6-1-2.2-2-2c-1.5 1-1.2-.1.6-2 2.6-2.4 0-7.2-4.1-8q-3.3-.6-3-2 .8-1 2.6-.7 2 .7 1.9-1.7-.1-2.1-2-2.7c-1.5-.4-2-1.4-2.1-4.2-.1-5-1.3-8.7-2.7-8.4-1.7.4-1.5-1.3.4-3.2 1.6-1.5 1.6-1.8 0-3.3q-1.6-1.6-1.6-.4 0 1.1-1 .7c-1.3-.8-1.3-6.2 0-7q1.2-.5 1.7 1.4c.6 2.3 2.3 2.9 2.3.8-.1-1.5-3.5-5.7-4.7-5.7-1.5 0-.3-11.4 1.3-12.6 2-1.6 1.8-6.4-.2-6.4-1.4 0-1.5-1-1-6.4.6-5 .3-7.8-1-12-1.7-5.3-1.7-5.7 0-7.5 1.4-1.5 1.6-2.8.9-7.7-.4-3.3-.6-35.4-.3-71.4.8-101.3-.8-292.4-2.5-301.2-.7-3.4-.6-3.7 1.4-3.3 1.8.3 2-.1 2-3.5 0-3.8-.8-4.4-3.5-2.7q-1.2.6-1.6-2.3c-.4-2.5-.1-3 1.6-3 1.6 0 2-.7 2.2-3 0-1.5.4-3.6.9-4.6.7-1.8.8-1.8 1.5 0q.9 2.3.9-3.4c-.1-5.4-.1-5.4-1.2-2.3-.7 1.8-2.1 4-3.2 5q-3 2.8-.1-.4c1.4-1.7 1.7-3.1 1.2-5.7-1-4.7-2.6-5.7-2-1.1m-15.3 27c-1 1.9-2 3.5-2.5 3.5s.2-1.6 1.3-3.5c1.2-2 2.3-3.5 2.5-3.5s-.4 1.6-1.3 3.5m5.2-1.5q-.6.9-1.6 1-.9-.1-1-1 .2-1 1.7-1 1.3 0 .9 1M929 441q.4.8-1 1.4-1.2.5-.7-1 .8-2.2 1.7-.4m5.6 1q-.1 1-1.1 1-.8 0-.4-1 .6-.9 1-1 .5.1.5 1m-18 22.4q-1.4 1.4-.4-.6.6-1.6 1.2-1.2c.6.4 0 1-.7 1.8m-3.2 15q1.3 1.5 0 2.2c-.4.3-1 0-1-.4q-.1-1-1.4-1.1c-1.3-.1-1.5.4-1.5 1q0 .9-1 1-.9-.1-1-1.4-.1-1.8 4-2.5.9 0 1.9 1.3m4 4q-.1 1.6-2 1.6c-1.8 0-2-.2-1-1.5q1.3-1.3 2.2-1.5c.9-.2.9.7.9 1.5m-17 6.2q0 1-1 2.3c-1.1 1.8-2.5.7-1.7-1.5.6-1.5 2.7-2.1 2.7-.8m1.6 5.7-4.5 3.5c-2.5 1.9-3.8 2.5-2.8 1.4a8 8 0 0 0 1.7-4.1c0-2 .4-2.1 2.8-1.6zm-20 148.3c-.1 3.8-.2.7-.2-6.7s0-10.5.3-6.8.2 9.8 0 13.5m0 32c-.2 3.8-.3.7-.3-6.7s0-10.5.3-6.8.2 9.8 0 13.5m.9 143.9q1.3-.4 1.4.8 0 1.4-2 .9c-2-.5-2-1.3-2-2.7q.2-2.6.7-.3.5 1.6 1.9 1.3m74.4 2.4q0 .9-.4 1-.5-.1-1.1-1-.4-1 .4-1 1 0 1 1m-71 39q0 1.7-.6 2.3c-.5.3-.8-.8-.8-2.3s.3-2.6.8-2.3c.4.2.7 1.3.7 2.3m-3.3 1.2q-.5 1-.5-1.2c0-2.2.2-2 .5-1.3s.2 1.9 0 2.5m-2.2 4.9q-.2 1.3-2.2 1.7-3.8.4-1.1-2.6c1.5-1.5 3.3-1 3.3.9m-13.4 15.2q-1.5 1.4-.5-.6.6-1.6 1.2-1.2c.6.4 0 1-.7 1.8m104.2 3.6c.2 1 0 2.5-.4 3.2q-1 1.6-1-2 .1-5.4 1.4-1.2m-101.6 2.3q-.5 1.1-.6-.6t.5-1.3c.3.3.4 1.2 0 1.9m-.6 6c0 .8-1 1.9-2 2.5-1.8 1.2-1.8 1-.8-1.7s2.8-3.3 2.8-.7m114.7 7.9q-.5 1.1-.6-.6t.5-1.3c.3.3.4 1.2 0 1.9m6.9 7.8c1 1 1.6 2 1.3 2s-1.3-1-2.3-2-1.6-2-1.3-2 1.3.9 2.3 2m-136.5 4c0 .6-1.2 1-2.6 1-2.2 0-2.4-.2-1.4-1.4 1.2-1.5 4-1.1 4 .5m-10 2c0 .4-1 .7-2 .6q-1.6-.1-1.5-.7c.6-1 3.5-.8 3.5 0m163 11.5q0 1.4-.4 1.5-.5-.1-1-1.5t.4-1.5q1 .2 1 1.5m-53-538.4c0 2 2 4.9 3.5 4.9 1.8 0 2-3.1.3-4.8-1.5-1.5-3.8-1.6-3.8-.1m-192.3 4.6c-2.4 4.5-2.1 6.4.4 2.6 1-1.8 1.9-3.8 1.6-4.5q-.5-1-2 1.9m200.6 38.8c0 3.8.2 5.3.4 3.2s.2-5.2 0-7-.4-.1-.4 3.8m-78.6 1.2c-2.4 4.5-2.1 6.4.4 2.6 1-1.8 1.9-3.8 1.6-4.5q-.5-1-2 1.9m-408.7 21a8 8 0 0 0 1.5 2.9c1.5 1.8 1.5 1.8 1.3-.5-.3-2.3-2.8-4.4-2.8-2.4M227 591.6c0 60 0 84.6.2 54.8s.2-78.8 0-109c-.1-30.1-.2-5.8-.2 54.2M965 603c0 55.3 0 77.9.2 50.2.2-27.6.2-72.8 0-100.5-.1-27.6-.2-5-.2 50.3m-428.5-39c0 1.9 3.3 7.5 3.7 6.3.2-.6-.3-2.5-1.2-4.2q-2.5-4.9-2.5-2.1M311 662.6c0 41.2 0 58.3.2 37.8.2-20.4.2-54.2 0-75-.1-20.8-.2-4.1-.2 37.2m568 1.5c0 41.5 0 58.5.2 37.8s.2-54.8 0-75.5c-.1-20.8-.2-3.8-.2 37.7M415.6 610q.1 1.9 1 2 1 0 1-1.3 0-1.8-1-2.1t-1 1.4m179 81c0 .6 1.2 1 2.6 1s2.3-.3 1.9-1c-.3-.5-1.5-1-2.6-1-1 0-2 .5-2 1m.3 4.4c-1.2 1.3-2.2 3.3-2.2 4.5s-.6 2.2-1.3 2.2c-1.7 0-3.7 4.2-3.7 7.6 0 1.4-1.4 4-3.2 5.9a85.2 85.2 0 0 0-13.8 23.6q-.2 1.5-1.5 2.3-1.4.6-1.5 1.6a24 24 0 0 1-3.4 5.7c-5.4 7.7-10 16.2-9.2 17.8q.3 1.4-.4 1.5-.9.1-.3 1.7t-.6.9-1.8 1.3q-.6 1.9-2 2c-2 0-3.5 4.8-2.2 7.3q1.5 2.4-1 1.4c-2.6-1-4.5 1.8-4.4 6.2 0 2.7-.1 3-.7 1.7-.6-1.8-1-1.6-2.5 1.5-1.3 2.5-1.4 3.5-.5 3.8q1 .6-2.1 3.8-3.5 3.5-1.7 3.4 1.5 0 2 .9c.5.9 2 .6 4.5.2 2.3-.5 4.7-.5 5.4 0q1.1.8-2.7 1.2t2.9.5c3.9 0 6.6-.2 6.3-.7-1-1.6 1.8-2 4.9-.5l5.8 1.9q2.8.5 2.7 2.6v2l-2.7-2-2.6-2.1-2 2c-1.7 1.9-1.7 2.3-.4 3.8 2.2 2.6 2.7 5 1.3 6q-1.2 1-2 .5-.5-.3-.6 2.4 0 3.1 2 3.6c2 .5 2 1.4 2 3.4 0 1.5.3 3.9.5 5.3q.7 2.8-.3.6-.9-2-1.6-.8c-.4.6-.1 2.2.7 3.4.8 1.3 1.5 4 1.6 6.3s.8 4.3 1.4 4.7.8 1 .4 1.4-.2 1.3.4 2c.8 1 .8 2.2 0 4.5q-2 5.6-.3 4.5c.5-.3 1.9 4 3.2 9.4a36 36 0 0 0 3 10c.6 0 1 2.7 1 5.9q0 5.9 1.4 7.4c.8.8 1.2 2.4.9 4q-.6 2.9 1 2.7 1.8 0 1.7 3c0 1.8.6 3.3 1.5 3.6q1.5.5 1.5 5.3c0 5 2.3 15 4.5 19.3q1.2 2.6.4 3.4c-1.4.9-1 3.4.6 3.4q1.4 0 .8 1.6-.5 1.5.4 2.3c1.4.9 3.4 8.7 2.7 10.5q-.4 1.5.5 1.6 1 0 .5 2.8c-.7 2.5-.6 2.6 1 1.2s1.9-1.3 1.3 3c-.3 2.5-.4 3.9-.1 3.2 1-2.2 2-1.3 1.6 1.3-.2 1.4-.1 2.5.3 2.5 1.2 0 3.6-3 3-4-.2-.4.2-2.5 1-4.6 1-2 1.5-4.8 1.2-6.1q-.3-2.1.4-2.3c2 0 3-4.1 1.6-7-1.3-2.6-1.3-3 .4-3.3 2.4-.6 3.7-4.1 4.5-12.1.7-6.7-.8-10-2.5-5.4l-1 2.3V923c-.1-3 2.2-5.5 6-6.4 2.3-.6 2.7-1.3 2.8-3.8 0-5 1.3-11 2.8-13.4a54 54 0 0 0 3.6-18.3c0-2 .4-3.8 1-4.1.5-.4 1.3-2.4 1.7-4.5.4-2.2 1-4.7 1.5-5.7q1-2.1-1.1-1.5-2 .3-2.2-1.8-.4-2.4 1.5-2c2.6.2 5.4-9 5.9-19.8.4-9.3 2-17 3.6-16 1.2.7 2-2.3 1.4-4.3-.6-1.5-.8-1.5-1.6-.3q-1 1.3-1 1c-.5-4-.3-12.3.2-12.7q.8-.1.8 2.2 0 2.5 1 1.9c.7-.3.9-2 .6-3.8-.8-4.1 0-5.1 4.9-5.3q4.3-.3 2.5.7-1.6 1 6.5 1h8l.4-3.8c.8-8.1.7-9.7-1-9.4q-1.2.2-.7-.3c1-1-1.1-4.7-2.1-4-.5.2-1.1-1-1.3-2.8-.7-4.6-1.2-6.1-2.3-7-1.6-1.1-2.8-.8-2.2.6q.4 1.2-1.4 1.3c-1.7 0-1.7-.2-.2-1.8 2-2.3.7-8-2.4-9.3-1.2-.5-2.6-2-3.2-3.2s-1.5-2.3-2.1-2.3c-.5 0-1-1-1-2 0-2.5-3.2-10-4.2-10q-.8-.2-.8-1.5c0-1.3-.4-1.5-.8-1.5s-1.4-1.8-2.1-4c-.6-2.1-3-6.4-5.4-9.7-2.3-3.2-4.1-6.6-4-7.6q.6-1.8-2.6-2.3c-3.2-.7-4.1-2-1.8-2.7q1.4-.2-.1-2-1.2-1.6-1-3c.3-.6-.8-2.6-2.4-4.4q-3-3.2-3.2-6.3c-.1-1.8-1-3.8-2-4.5-.8-.7-1.6-2-1.6-3s-.6-1.5-1.3-1.5-1.3-1-1.3-2.1q-.1-4.6-4.2-.6m5.8 9.3q.2 2-1.5.4-1.3-1.2-1.5-1.6c-.2-.4.7-.4 1.5-.4s1.5.7 1.5 1.6m3.7 1q-.6.5-2 0-1-.4.7-.5c1-.1 1.7.2 1.3.5M598 713q-.6 1-1.7 1c-1.1 0-.6-.5.2-1.4 1.4-1.7 2.6-1.3 1.5.4m-21.3 24q.4 3-.8 3-1.5.2-.7-3.1.8-3.5-.7-2.3-1.4.8-.6-.4c1-1.7 2.3-.5 2.8 2.9m5.8-1q0 1-1 1-.9-.1-1-1.6.1-1.2 1-1 1 .6 1 1.7m40 20.2c-1.5 1.6-2.5 0-1-2q1.5-1.5 1.8-.3c.2.6-.1 1.7-.7 2.3m-56 2c-1.5 1.5-3.4-.4-2.5-2.6.5-1.5.7-1.5 2-.1q1.9 1.4.5 2.7m60.6 5.9q-.5 1-.5-1.2c0-2.2.2-2 .5-1.3s.2 1.9 0 2.5m-68.7 7.8q-.2.9-2.2.9-3.2.2-.3-1l2.3-.8q.1 0 .2.9m78 0q1.3.8 1 1.4c-.3.2-1.4-.2-2.4-1-2.2-1.5-1-2 1.4-.4m1.4 6.5c.7 2.9-.7 6.5-1.8 4.6q-.6-1 .4-1.1 1.3-.2.8-1.8c-.5-2.3-3.2-2.2-4 .3q-.6 2.7-.7-.6c-.2-4.6 4.2-5.7 5.3-1.4m8 5.5q.5.9-.3 1-1-.1-1.1-1 0-1 .4-1 .6 0 1 1m-98.8 2.5c-1.6.9-3.2 1.3-3.5 1-.8-1 2-2.5 4.4-2.5q2.5-.1-1 1.5m3.5 3.9q-.2.4-1.5 1.6-1.7 1.6-1.5-.4.1-1.5 1.5-1.6c1.4-.1 1.5.2 1.5.4m-6 6.2q-.1 1.3-1 .9-1-.7-.5-1.6 1.4-2 1.5.7m105.4 2q.5 1.3-.4.9c-1-.4-1-1-1-1.6q.2-2 1.4.7m-30.2 8.9c-.4 2.3-2.2 3.6-2.2 1.6 0-.5-.3-1.6-.6-2.5q-.6-1.6 1.4-1.6c1.5 0 1.8.5 1.4 2.5m2.8 6.8c0 3.3-.4 4.4-1.5 4.4q-1.5 0-1-1.6c.4-1 .9-2.8 1.2-4.4q1.3-5.9 1.3 1.6m-44.8 64.9c-.3 1.3-.8 2.5-1.2 2.8s-1.2 1.4-1.8 2.5c-1.6 2.9-1.5 0 .2-4s3.7-4.8 2.8-1.3m2.8 3.4q-.1 1.3-1 .9-1-.7-.5-1.6 1.4-2 1.5.7m29 21q-1 2.3-1 .3c0-1.7 1-3.2 1.8-2.5q.3.6-.7 2.3m-5.1 3.7q0 .6-1 1t-1-.3q.1-1 1-1.1 1 0 1 .4m-.7 26.6c.3 1 0 2-.4 2s-1-1-1-2 .3-2 .5-2 .6.9.9 2m-8.3 16.5q-.2.3-1.5.9-1.5.5-1.5-1c0-1.4.6-1.1 1.5-.8q1.3.6 1.5.9M881 757c0 5.2 0 7.4.3 4.7.2-2.6.2-6.8 0-9.5-.2-2.6-.3-.4-.3 4.8m-382.1.2q.5 1.2 1.7 1.3c1.2 0 1.5-.6 1.8-1.3q.2-1.1-1.8-1.2c-2-.1-2 .5-1.7 1.2M879.6 776q.1 1.9 1 2 1 0 1-1.3 0-1.8-1-2.1t-1 1.4m0 8c0 1.7.5 3 1 3q1-.2 1-2.3c0-1.4-.4-2.8-1-3.1s-1 .7-1 2.4m-224.4 17.6c-.8 2 0 3.5 2 3.5q1.5 0 1.2-2.2c-.4-2.7-2.3-3.4-3.2-1.3M530 802c-.6.9 1 5 2 5 .3 0 .5-1.4.5-3 0-3-1.3-4-2.5-2M309.6 812c0 1.7.5 3 1 3q1-.2 1-2.3c0-1.4-.4-2.8-1-3.1s-1 .7-1 2.4m-84 1q0 3 1 2.6c.6-.3 1-1.5 1-2.5s-.4-2.2-1-2.5q-1-.4-1 2.5m84 10.9q.1 1.9 1 2 1 0 1-1.3 0-1.8-1-2.1t-1 1.4m-86 12c0 1.7.5 3 1 3q1-.2 1-2.3c0-1.4-.4-2.8-1-3.1s-1 .7-1 2.4m404 4q.1 1.9 1 2 1 0 1-1.3 0-1.8-1-2.1t-1 1.4m246 4q.1 1.9 1 2 1 0 1-1.3 0-1.8-1-2.1t-1 1.4m105 45c2 4 5.2 8.3 5.7 7.8.7-.8-2.3-6-4.7-8.2l-2.3-2zm-373 29.8a8 8 0 0 0 1.5 2.9c1.5 1.8 1.5 1.8 1.3-.5-.3-2.3-2.8-4.4-2.8-2.4m435.7 14c-1.3 1.2-.7 3.3.8 3.3q1.3.2 1.6 1.7-.1 2.3 1-.4c1.6-3.1-1.3-6.8-3.4-4.6M816.6 940c0 .5 1.4 1 3 1s3-.5 3-1-1.3-1-3-1-3 .4-3 1m17.8-.3c2.3.2 5.9.2 8 0s0-.4-4.3-.4-6.1.2-3.7.4m27 0c2.3.2 6 .2 8.5 0 2.3-.2.4-.4-4.3-.4s-6.6.2-4.2.4m19.7.3q-.4 1 2.5 1c2.9 0 2.9-.4 2.5-1s-1.5-1-2.5-1-2.2.4-2.5 1m19.3-.3c2.8.2 7.6.2 10.5 0 2.8-.2.5-.3-5.3-.3s-8.1 0-5.2.3m44.5 0c4.8.2 12.6.2 17.5 0 4.8-.1.8-.3-8.8-.3s-13.6.2-8.7.3m43.2.3c.3.5 1.9 1 3.5 1s3.2-.5 3.5-1q.4-1-3.5-1c-4 0-4 .4-3.5 1m24.3-.3c2.8.2 7.6.2 10.5 0 2.8-.2.5-.3-5.3-.3s-8.1 0-5.2.3"/></svg>